<svg width="241" height="254" xmlns="http://www.w3.org/2000/svg" xmlns:xlink="http://www.w3.org/1999/xlink"><defs><linearGradient x1="23.05%" y1="32.622%" x2="61.487%" y2="72.798%" id="a"><stop stop-color="#455A64" stop-opacity=".965" offset="0%"/><stop stop-color="#2A253C" offset="100%"/></linearGradient><linearGradient x1="50%" y1="2.285%" x2="50%" y2="100%" id="b"><stop stop-color="#FFF" stop-opacity="0" offset="0%"/><stop stop-color="#FFF" stop-opacity=".2" offset="100%"/></linearGradient><path id="c" d="M0 .034h24.861v40.06H0z"/><path id="e" d="M.314.23h59.494v59.829H.314z"/><path d="M.96 76.824c-1.693 6.394 2.136 13.008 8.514 14.704L91.17 113.27c6.38 1.697 12.976-2.142 14.67-8.536l20.28-76.58L21.824.4l-.582-.156L.96 76.824z" id="g"/></defs><g fill="none" fill-rule="evenodd"><g transform="translate(0 3.43)"><circle fill="url(#a)" cx="100.156" cy="149.548" r="100.156"/><path d="M89.866 231.703l56.087-56.087" stroke="url(#b)" stroke-width="10.29" stroke-linecap="square" transform="rotate(-180 117.91 203.66)"/><path d="M75.109 214.383l56.086-56.086" stroke="url(#b)" stroke-width="15.092" stroke-linecap="square" transform="rotate(-180 103.152 186.34)"/><path d="M36.693 231.533l56.086-56.086" stroke="url(#b)" stroke-width="24.01" stroke-linecap="square" transform="rotate(-180 64.736 203.49)"/><circle fill="#FFF" opacity=".05" cx="20.58" cy="133.77" r="4.116"/><circle fill="#FFF" opacity=".191" cx="95.011" cy="221.235" r="3.087"/><circle fill="#FFF" opacity=".405" cx="160.867" cy="202.027" r="3.087"/><circle fill="#FFF" opacity=".456" cx="35.672" cy="188.65" r="2.058"/></g><path d="M44.521 125.458l.48 8.808c.079 1.46 1.242 2.947 2.584 3.304l4.473 1.19 14.448 3.846 4.473 1.19c1.343.357 3.09-.356 3.883-1.584l4.782-7.408-35.123-9.346z" fill="#757575"/><path d="M59.282 140.683l7.224 1.922 4.473 1.19c1.342.358 3.09-.354 3.882-1.583l4.783-7.407-17.568-4.675" fill="#000" opacity=".2"/><path fill="#F3F3F3" d="M44.515 125.457L60.218 54.87l41.225 10.97-21.805 68.963"/><path d="M103.473 58.19l-.001.006c0-.006-.005-.008-.005-.008l.006.002z" fill="#5BC348"/><path d="M103.467 58.188s.006.002.004.008a6.778 6.778 0 0 0-2.233 3.494 6.808 6.808 0 0 0 .205 4.15L60.217 54.87a6.845 6.845 0 0 0 2.236-3.5 6.83 6.83 0 0 0-.207-4.144c.002-.006.008-.004.008-.004l41.213 10.966z" fill="#C6C6C5"/><path d="M103.467 58.188L62.254 47.222c4.253-15.752 14.192-25.34 26.418-28.228.72-.176 1.484-.2 2.25-.108.285.036.578.088.87.166.287.076.568.177.839.289.704.298 1.357.694 1.894 1.204 9.187 8.586 13.062 21.85 8.942 37.643" fill="#F3F3F3"/><path d="M62.254 47.222s-.006-.002-.008.004l.002-.006.006.002z" fill="#5BC348"/><path fill="#C6C6C5" d="M80.83 60.355l20.613 5.485-21.805 68.963-17.561-4.673"/><path d="M103.473 58.19l-.001.006c0-.006-.005-.008-.005-.008l.006.002z" fill="#D3DDE2"/><path d="M82.859 52.711l.001-.006 20.607 5.484s.006.002.004.007a6.785 6.785 0 0 0-2.234 3.494 6.805 6.805 0 0 0 .206 4.15L80.83 60.355" fill="#000" opacity=".2"/><path d="M91.793 19.052c.286.076.567.177.837.289.705.298 1.358.694 1.896 1.203 9.186 8.588 13.061 21.851 8.94 37.645L82.86 52.705" fill="#C6C6C5"/><path d="M64.78 132.853l-.03.081-.028.08a3.416 3.416 0 0 1-6.577-1.753l.015-.085.015-.084 9.128-50.72a7.75 7.75 0 0 1 .168-.804c1.1-4.145 5.348-6.613 9.489-5.511 4.14 1.102 6.603 5.355 5.503 9.5-.07.27-.157.531-.254.785l-17.43 48.511z" fill="#1967D2"/><path d="M77.062 74.084c4.14 1.102 6.605 5.356 5.504 9.501-.071.27-.157.53-.254.785l-17.429 48.51c-.01.027-.018.055-.03.081l-.028.081a3.416 3.416 0 0 1-4.091 2.15" fill="#000" opacity=".2"/><g transform="translate(42.532 144.14)"><mask id="d" fill="#fff"><use xlink:href="#c"/></mask><path d="M15.647.623C-4.9-4.845-1.186 29.301 4.346 39.358l-.002-.01a1.28 1.28 0 0 0 1.905.508l-.005.007c9.352-5.714 30.867-33.528 9.403-39.24" fill="#E37400" mask="url(#d)"/></g><path d="M57.745 146.61c-13.078-3.48-10.087 15.892-6.404 21.681l-.001-.004a.889.889 0 0 0 1.213.322l-.004.004c5.798-3.052 18.857-18.367 5.196-22.002" fill="#FBBC04"/><path d="M236.914 95.277c4.673-4.713 4.645-12.311-.062-16.99a11.981 11.981 0 0 0-16.968.062l-38.078 38.406c-4.673 4.713-4.645 12.311.061 16.99a11.98 11.98 0 0 0 16.969-.062l38.078-38.406z" fill="#78C257"/><g transform="translate(121.455 133.393)"><mask id="f" fill="#fff"><use xlink:href="#e"/></mask><path d="M56.322 20.71c4.672-4.713 4.645-12.311-.062-16.99a11.981 11.981 0 0 0-16.969.062L3.801 39.577c-4.672 4.713-4.645 12.312.062 16.99a11.98 11.98 0 0 0 16.968-.06l35.49-35.797z" fill="#78C257" mask="url(#f)"/></g><path d="M138.633 148.902c4.583-4.622 4.67-11.962.195-16.41-4.475-4.45-11.805-4.309-16.388.315l-34.814 35.112c-4.583 4.623-4.67 11.962-.195 16.411 4.476 4.449 11.805 4.308 16.388-.315l34.814-35.113z" fill="#78C257"/><path fill="#FFF" d="M108.45 53.268l-3.103 10.936 105.841 24.425 1.956-7.611z"/><path d="M107.3 59.193l-.584-.155-20.29 76.526c-1.694 6.39 2.137 12.998 8.518 14.694l81.73 21.726c6.381 1.696 12.981-2.14 14.676-8.53l20.29-76.525L107.3 59.193zM107.953 54.964L212.67 82.8l1.486-5.601c.25-1.651.428-3.26.517-4.891.72-14.362-5.687-28.433-16.94-38.575L209.67 21.07a1.971 1.971 0 0 0-.077-2.769 1.965 1.965 0 0 0-2.765.077l-12.069 12.814c-6.116-4.811-13.396-8.527-21.555-10.696-8.216-2.184-16.445-2.56-24.176-1.398L144.88 1.912c-.256-1.036-1.328-1.696-2.362-1.44-1.036.255-1.694 1.33-1.439 2.366l4.097 17.017c-14.093 3.156-26.14 11.54-32.808 23.509a43.443 43.443 0 0 0-4.028 10.017c-.147.554-.286 1.079-.396 1.612l.008-.03z" fill="#78C257"/><path d="M193.005 47.154c2.71.72 4.336 3.527 3.617 6.24-.72 2.713-3.522 4.341-6.231 3.621-2.71-.72-4.337-3.526-3.618-6.239.72-2.713 3.522-4.342 6.232-3.622M144.19 34.164c2.71.72 4.336 3.527 3.616 6.24-.72 2.713-3.522 4.341-6.231 3.621-2.71-.72-4.337-3.526-3.617-6.239.72-2.713 3.521-4.342 6.231-3.622" fill="#FFF"/><path fill="#000" opacity=".1" d="M195.131 149.208L93.383 122.132l3.352-12.631 101.749 27.075z"/><path fill="#F3F3F3" d="M199.77 147.171L94.194 119.077l3.352-12.63 105.576 28.094z"/><g transform="translate(85.75 58.996)"><mask id="h" fill="#fff"><use xlink:href="#g"/></mask><path d="M30.382 40.5L9.908 74.071c-9.985 12.504-22.47-5.921-22.47-5.921L11.73 35.584l18.652 4.915z" fill="#000" opacity=".1" mask="url(#h)"/></g><path d="M126.873 88.39c4.646-4.712 4.62-12.308-.062-16.986a11.87 11.87 0 0 0-16.874.062l-37.87 38.397c-4.647 4.712-4.62 12.31.061 16.987a11.87 11.87 0 0 0 16.876-.062l37.869-38.398z" fill="#78C257"/></g></svg>
